<?xml version="1.0" encoding="UTF-8" standalone="no"?>
<!-- Created with Inkscape (http://www.inkscape.org/) -->
<svg
   xmlns:dc="http://purl.org/dc/elements/1.1/"
   xmlns:cc="http://web.resource.org/cc/"
   xmlns:rdf="http://www.w3.org/1999/02/22-rdf-syntax-ns#"
   xmlns:svg="http://www.w3.org/2000/svg"
   xmlns="http://www.w3.org/2000/svg"
   xmlns:sodipodi="http://sodipodi.sourceforge.net/DTD/sodipodi-0.dtd"
   xmlns:inkscape="http://www.inkscape.org/namespaces/inkscape"
   id="svg1890"
   sodipodi:version="0.32"
   inkscape:version="0.44.1"
   width="470"
   height="470"
   version="1.0"
   sodipodi:docbase="D:\program\svg\道路標識\規制標識"
   sodipodi:docname="323-40.svg">
  <metadata
     id="metadata1895">
    <rdf:RDF>
      <cc:Work
         rdf:about="">
        <dc:format>image/svg+xml</dc:format>
        <dc:type
           rdf:resource="http://purl.org/dc/dcmitype/StillImage" />
      </cc:Work>
    </rdf:RDF>
  </metadata>
  <defs
     id="defs1893" />
  <sodipodi:namedview
     inkscape:window-height="712"
     inkscape:window-width="1024"
     inkscape:pageshadow="2"
     inkscape:pageopacity="0.0"
     guidetolerance="10.0"
     gridtolerance="10.0"
     objecttolerance="10.0"
     borderopacity="1.0"
     bordercolor="#666666"
     pagecolor="#ffffff"
     id="base"
     inkscape:zoom="0.68006895"
     inkscape:cx="748.17705"
     inkscape:cy="114.16514"
     inkscape:window-x="-4"
     inkscape:window-y="-4"
     inkscape:current-layer="svg1890" />
  <path
     sodipodi:type="arc"
     style="opacity:1;color:black;fill:#ed1c23;fill-opacity:1;fill-rule:evenodd;stroke:#ed1c23;stroke-width:0.61780667;stroke-linecap:round;stroke-linejoin:miter;marker:none;marker-start:none;marker-mid:none;marker-end:none;stroke-miterlimit:4;stroke-dasharray:none;stroke-dashoffset:0;stroke-opacity:1;visibility:visible;display:inline;overflow:visible"
     id="path1926"
     sodipodi:cx="316.51202"
     sodipodi:cy="345.74789"
     sodipodi:rx="117.26752"
     sodipodi:ry="105.1364"
     d="M 433.77954 345.74789 A 117.26752 105.1364 0 1 1  199.24451,345.74789 A 117.26752 105.1364 0 1 1  433.77954 345.74789 z"
     transform="matrix(1.918916,0,0,2.133334,-371.1486,-502.3368)" />
  <path
     sodipodi:type="arc"
     style="opacity:1;color:black;fill:white;fill-opacity:1;fill-rule:evenodd;stroke:white;stroke-width:0.6240471;stroke-linecap:round;stroke-linejoin:miter;marker:none;marker-start:none;marker-mid:none;marker-end:none;stroke-miterlimit:4;stroke-dasharray:none;stroke-dashoffset:0;stroke-opacity:1;visibility:visible;display:inline;overflow:visible"
     id="path9909"
     sodipodi:cx="316.51202"
     sodipodi:cy="345.74789"
     sodipodi:rx="117.26752"
     sodipodi:ry="105.1364"
     d="M 433.77954 345.74789 A 117.26752 105.1364 0 1 1  199.24451,345.74789 A 117.26752 105.1364 0 1 1  433.77954 345.74789 z"
     transform="matrix(1.899727,0,0,2.112001,-365.075,-494.9608)" />
  <path
     sodipodi:type="arc"
     style="opacity:1;color:black;fill:#ed1c23;fill-opacity:1;fill-rule:evenodd;stroke:#ed1c23;stroke-width:0.66953158;stroke-linecap:round;stroke-linejoin:miter;marker:none;marker-start:none;marker-mid:none;marker-end:none;stroke-miterlimit:4;stroke-dasharray:none;stroke-dashoffset:0;stroke-opacity:1;visibility:visible;display:inline;overflow:visible"
     id="path9911"
     sodipodi:cx="316.51202"
     sodipodi:cy="345.74789"
     sodipodi:rx="117.26752"
     sodipodi:ry="105.1364"
     d="M 433.77954 345.74789 A 117.26752 105.1364 0 1 1  199.24451,345.74789 A 117.26752 105.1364 0 1 1  433.77954 345.74789 z"
     transform="matrix(1.77067,0,0,1.968522,-324.2268,-445.3535)" />
  <path
     sodipodi:type="arc"
     style="fill:white;fill-rule:evenodd;stroke:white;stroke-width:0.32315737;stroke-linecap:butt;stroke-linejoin:miter;stroke-miterlimit:4;stroke-dasharray:none;stroke-opacity:1"
     id="path2817"
     sodipodi:cx="149.24957"
     sodipodi:cy="243.91997"
     sodipodi:rx="33.820103"
     sodipodi:ry="43.745567"
     d="M 183.06968 243.91997 A 33.820103 43.745567 0 1 1  115.42947,243.91997 A 33.820103 43.745567 0 1 1  183.06968 243.91997 z"
     transform="matrix(4.393785,0,0,3.405282,-419.5596,-594.9888)" />
  <path
     style="fill:none;fill-rule:evenodd;stroke:#0066b3;stroke-width:18.60618973;stroke-linecap:butt;stroke-linejoin:miter;stroke-miterlimit:4;stroke-dasharray:none;stroke-opacity:1"
     d="M 255.60637,190.24085 C 256.51614,180.12685 264.47864,169.4342 276.91868,163.43694 C 286.27429,159.87738 302.65437,159.68249 314.49365,164.04612 C 325.13273,169.90361 333.24941,177.97673 334.71876,190.34537 L 335.51017,278.57189 C 334.69084,290.27716 325.75249,296.45125 317.67801,301.11154 C 304.16878,306.66067 287.95764,306.14676 273.0975,300.50236 C 264.29361,296.21327 257.59277,290.89392 255.90214,280.07325 L 255.60637,190.24085 z "
     id="path8243"
     sodipodi:nodetypes="ccccccccc" />
  <path
     style="fill:none;fill-rule:evenodd;stroke:#0066b3;stroke-width:18.59108543;stroke-linecap:butt;stroke-linejoin:miter;stroke-miterlimit:4;stroke-dasharray:none;stroke-opacity:1"
     d="M 224.11749,284.00859 L 135.89867,284.30761 L 135.82258,273.03817 L 186.3091,160.6363 L 194.94323,160.61041 L 194.80193,312.01858"
     id="path10025"
     sodipodi:nodetypes="cccccc" />
</svg>
